<svg width="87" height="60" viewBox="0 0 87 60" fill="none" xmlns="http://www.w3.org/2000/svg">
<g opacity="0.3">
<mask id="mask0_1_11" style="mask-type:alpha" maskUnits="userSpaceOnUse" x="0" y="0" width="9" height="7">
<path d="M4.14 6.70501C6.31947 6.70501 8.08628 5.3458 8.08628 3.66917C8.08628 1.99253 6.31947 0.633362 4.14 0.633362C1.96053 0.633362 0.193726 1.99253 0.193726 3.66917C0.193726 5.3458 1.96053 6.70501 4.14 6.70501Z" fill="url(#paint0_linear_1_11)"/>
</mask>
<g mask="url(#mask0_1_11)">
<path d="M4.14 6.70501C6.31947 6.70501 8.08628 5.3458 8.08628 3.66917C8.08628 1.99253 6.31947 0.633362 4.14 0.633362C1.96053 0.633362 0.193726 1.99253 0.193726 3.66917C0.193726 5.3458 1.96053 6.70501 4.14 6.70501Z" fill="url(#paint1_linear_1_11)"/>
</g>
<mask id="mask1_1_11" style="mask-type:alpha" maskUnits="userSpaceOnUse" x="23" y="0" width="8" height="7">
<path d="M26.9952 6.70501C29.1746 6.70501 30.9415 5.3458 30.9415 3.66917C30.9415 1.99253 29.1746 0.633362 26.9952 0.633362C24.8157 0.633362 23.0489 1.99253 23.0489 3.66917C23.0489 5.3458 24.8157 6.70501 26.9952 6.70501Z" fill="url(#paint2_linear_1_11)"/>
</mask>
<g mask="url(#mask1_1_11)">
<path d="M26.9958 6.70501C29.1753 6.70501 30.9421 5.3458 30.9421 3.66917C30.9421 1.99253 29.1753 0.633362 26.9958 0.633362C24.8163 0.633362 23.0495 1.99253 23.0495 3.66917C23.0495 5.3458 24.8163 6.70501 26.9958 6.70501Z" fill="url(#paint3_linear_1_11)"/>
</g>
<mask id="mask2_1_11" style="mask-type:alpha" maskUnits="userSpaceOnUse" x="45" y="0" width="9" height="7">
<path d="M49.8503 6.70501C52.0297 6.70501 53.7966 5.3458 53.7966 3.66917C53.7966 1.99253 52.0297 0.633362 49.8503 0.633362C47.6708 0.633362 45.904 1.99253 45.904 3.66917C45.904 5.3458 47.6708 6.70501 49.8503 6.70501Z" fill="url(#paint4_linear_1_11)"/>
</mask>
<g mask="url(#mask2_1_11)">
<path d="M49.8508 6.70501C52.0303 6.70501 53.7971 5.3458 53.7971 3.66917C53.7971 1.99253 52.0303 0.633362 49.8508 0.633362C47.6714 0.633362 45.9045 1.99253 45.9045 3.66917C45.9045 5.3458 47.6714 6.70501 49.8508 6.70501Z" fill="url(#paint5_linear_1_11)"/>
</g>
<mask id="mask3_1_11" style="mask-type:alpha" maskUnits="userSpaceOnUse" x="68" y="0" width="9" height="7">
<path d="M72.7053 6.70501C74.8848 6.70501 76.6516 5.3458 76.6516 3.66917C76.6516 1.99253 74.8848 0.633362 72.7053 0.633362C70.5258 0.633362 68.759 1.99253 68.759 3.66917C68.759 5.3458 70.5258 6.70501 72.7053 6.70501Z" fill="url(#paint6_linear_1_11)"/>
</mask>
<g mask="url(#mask3_1_11)">
<path d="M72.7058 6.70501C74.8853 6.70501 76.6521 5.3458 76.6521 3.66917C76.6521 1.99253 74.8853 0.633362 72.7058 0.633362C70.5263 0.633362 68.7595 1.99253 68.7595 3.66917C68.7595 5.3458 70.5263 6.70501 72.7058 6.70501Z" fill="url(#paint7_linear_1_11)"/>
</g>
<mask id="mask4_1_11" style="mask-type:alpha" maskUnits="userSpaceOnUse" x="0" y="15" width="9" height="7">
<path d="M4.14 21.9472C6.31947 21.9472 8.08628 20.5881 8.08628 18.9114C8.08628 17.2348 6.31947 15.8756 4.14 15.8756C1.96053 15.8756 0.193726 17.2348 0.193726 18.9114C0.193726 20.5881 1.96053 21.9472 4.14 21.9472Z" fill="url(#paint8_linear_1_11)"/>
</mask>
<g mask="url(#mask4_1_11)">
<path d="M4.14 21.9473C6.31947 21.9473 8.08628 20.5881 8.08628 18.9115C8.08628 17.2349 6.31947 15.8757 4.14 15.8757C1.96053 15.8757 0.193726 17.2349 0.193726 18.9115C0.193726 20.5881 1.96053 21.9473 4.14 21.9473Z" fill="url(#paint9_linear_1_11)"/>
</g>
<mask id="mask5_1_11" style="mask-type:alpha" maskUnits="userSpaceOnUse" x="23" y="15" width="8" height="7">
<path d="M26.9952 21.9473C29.1746 21.9473 30.9415 20.5882 30.9415 18.9115C30.9415 17.2349 29.1746 15.8757 26.9952 15.8757C24.8157 15.8757 23.0489 17.2349 23.0489 18.9115C23.0489 20.5882 24.8157 21.9473 26.9952 21.9473Z" fill="url(#paint10_linear_1_11)"/>
</mask>
<g mask="url(#mask5_1_11)">
<path d="M26.9958 21.9473C29.1753 21.9473 30.9421 20.5881 30.9421 18.9115C30.9421 17.2348 29.1753 15.8757 26.9958 15.8757C24.8163 15.8757 23.0495 17.2348 23.0495 18.9115C23.0495 20.5881 24.8163 21.9473 26.9958 21.9473Z" fill="url(#paint11_linear_1_11)"/>
</g>
<mask id="mask6_1_11" style="mask-type:alpha" maskUnits="userSpaceOnUse" x="45" y="15" width="9" height="7">
<path d="M49.8503 21.9473C52.0297 21.9473 53.7966 20.5882 53.7966 18.9115C53.7966 17.2349 52.0297 15.8757 49.8503 15.8757C47.6708 15.8757 45.904 17.2349 45.904 18.9115C45.904 20.5882 47.6708 21.9473 49.8503 21.9473Z" fill="url(#paint12_linear_1_11)"/>
</mask>
<g mask="url(#mask6_1_11)">
<path d="M49.8508 21.9473C52.0303 21.9473 53.7971 20.5881 53.7971 18.9115C53.7971 17.2348 52.0303 15.8757 49.8508 15.8757C47.6714 15.8757 45.9045 17.2348 45.9045 18.9115C45.9045 20.5881 47.6714 21.9473 49.8508 21.9473Z" fill="url(#paint13_linear_1_11)"/>
</g>
<mask id="mask7_1_11" style="mask-type:alpha" maskUnits="userSpaceOnUse" x="68" y="15" width="9" height="7">
<path d="M72.7053 21.9473C74.8848 21.9473 76.6516 20.5882 76.6516 18.9115C76.6516 17.2349 74.8848 15.8757 72.7053 15.8757C70.5258 15.8757 68.759 17.2349 68.759 18.9115C68.759 20.5882 70.5258 21.9473 72.7053 21.9473Z" fill="url(#paint14_linear_1_11)"/>
</mask>
<g mask="url(#mask7_1_11)">
<path d="M72.7058 21.9473C74.8853 21.9473 76.6521 20.5881 76.6521 18.9115C76.6521 17.2348 74.8853 15.8757 72.7058 15.8757C70.5263 15.8757 68.7595 17.2348 68.7595 18.9115C68.7595 20.5881 70.5263 21.9473 72.7058 21.9473Z" fill="url(#paint15_linear_1_11)"/>
</g>
<mask id="mask8_1_11" style="mask-type:alpha" maskUnits="userSpaceOnUse" x="0" y="31" width="9" height="7">
<path d="M4.14 37.158C6.31947 37.158 8.08628 35.7989 8.08628 34.1222C8.08628 32.4456 6.31947 31.0864 4.14 31.0864C1.96053 31.0864 0.193726 32.4456 0.193726 34.1222C0.193726 35.7989 1.96053 37.158 4.14 37.158Z" fill="url(#paint16_linear_1_11)"/>
</mask>
<g mask="url(#mask8_1_11)">
<path d="M4.14 37.1581C6.31947 37.1581 8.08628 35.799 8.08628 34.1223C8.08628 32.4457 6.31947 31.0865 4.14 31.0865C1.96053 31.0865 0.193726 32.4457 0.193726 34.1223C0.193726 35.799 1.96053 37.1581 4.14 37.1581Z" fill="url(#paint17_linear_1_11)"/>
</g>
<mask id="mask9_1_11" style="mask-type:alpha" maskUnits="userSpaceOnUse" x="23" y="31" width="8" height="7">
<path d="M26.9952 37.1583C29.1746 37.1583 30.9415 35.7991 30.9415 34.1224C30.9415 32.4458 29.1746 31.0866 26.9952 31.0866C24.8157 31.0866 23.0489 32.4458 23.0489 34.1224C23.0489 35.7991 24.8157 37.1583 26.9952 37.1583Z" fill="url(#paint18_linear_1_11)"/>
</mask>
<g mask="url(#mask9_1_11)">
<path d="M26.9958 37.1581C29.1753 37.1581 30.9421 35.7989 30.9421 34.1223C30.9421 32.4456 29.1753 31.0864 26.9958 31.0864C24.8163 31.0864 23.0495 32.4456 23.0495 34.1223C23.0495 35.7989 24.8163 37.1581 26.9958 37.1581Z" fill="url(#paint19_linear_1_11)"/>
</g>
<mask id="mask10_1_11" style="mask-type:alpha" maskUnits="userSpaceOnUse" x="45" y="31" width="9" height="7">
<path d="M49.8503 37.1583C52.0297 37.1583 53.7966 35.7991 53.7966 34.1224C53.7966 32.4458 52.0297 31.0866 49.8503 31.0866C47.6708 31.0866 45.904 32.4458 45.904 34.1224C45.904 35.7991 47.6708 37.1583 49.8503 37.1583Z" fill="url(#paint20_linear_1_11)"/>
</mask>
<g mask="url(#mask10_1_11)">
<path d="M49.8508 37.1581C52.0303 37.1581 53.7971 35.7989 53.7971 34.1223C53.7971 32.4456 52.0303 31.0864 49.8508 31.0864C47.6714 31.0864 45.9045 32.4456 45.9045 34.1223C45.9045 35.7989 47.6714 37.1581 49.8508 37.1581Z" fill="url(#paint21_linear_1_11)"/>
</g>
<mask id="mask11_1_11" style="mask-type:alpha" maskUnits="userSpaceOnUse" x="68" y="31" width="9" height="7">
<path d="M72.7053 37.1583C74.8848 37.1583 76.6516 35.7991 76.6516 34.1224C76.6516 32.4458 74.8848 31.0866 72.7053 31.0866C70.5258 31.0866 68.759 32.4458 68.759 34.1224C68.759 35.7991 70.5258 37.1583 72.7053 37.1583Z" fill="url(#paint22_linear_1_11)"/>
</mask>
<g mask="url(#mask11_1_11)">
<path d="M72.7058 37.1581C74.8853 37.1581 76.6521 35.7989 76.6521 34.1223C76.6521 32.4456 74.8853 31.0864 72.7058 31.0864C70.5263 31.0864 68.7595 32.4456 68.7595 34.1223C68.7595 35.7989 70.5263 37.1581 72.7058 37.1581Z" fill="url(#paint23_linear_1_11)"/>
</g>
<mask id="mask12_1_11" style="mask-type:alpha" maskUnits="userSpaceOnUse" x="0" y="46" width="9" height="7">
<path d="M4.14 52.4007C6.31947 52.4007 8.08628 51.0414 8.08628 49.3648C8.08628 47.6882 6.31947 46.329 4.14 46.329C1.96053 46.329 0.193726 47.6882 0.193726 49.3648C0.193726 51.0414 1.96053 52.4007 4.14 52.4007Z" fill="url(#paint24_linear_1_11)"/>
</mask>
<g mask="url(#mask12_1_11)">
<path d="M4.14 52.4004C6.31947 52.4004 8.08628 51.0412 8.08628 49.3646C8.08628 47.6879 6.31947 46.3288 4.14 46.3288C1.96053 46.3288 0.193726 47.6879 0.193726 49.3646C0.193726 51.0412 1.96053 52.4004 4.14 52.4004Z" fill="url(#paint25_linear_1_11)"/>
</g>
<mask id="mask13_1_11" style="mask-type:alpha" maskUnits="userSpaceOnUse" x="23" y="46" width="8" height="7">
<path d="M26.9952 52.4007C29.1746 52.4007 30.9415 51.0414 30.9415 49.3648C30.9415 47.6882 29.1746 46.329 26.9952 46.329C24.8157 46.329 23.0489 47.6882 23.0489 49.3648C23.0489 51.0414 24.8157 52.4007 26.9952 52.4007Z" fill="url(#paint26_linear_1_11)"/>
</mask>
<g mask="url(#mask13_1_11)">
<path d="M26.9958 52.4004C29.1753 52.4004 30.9421 51.0412 30.9421 49.3646C30.9421 47.6879 29.1753 46.3288 26.9958 46.3288C24.8163 46.3288 23.0495 47.6879 23.0495 49.3646C23.0495 51.0412 24.8163 52.4004 26.9958 52.4004Z" fill="url(#paint27_linear_1_11)"/>
</g>
<mask id="mask14_1_11" style="mask-type:alpha" maskUnits="userSpaceOnUse" x="45" y="46" width="9" height="7">
<path d="M49.8503 52.4007C52.0297 52.4007 53.7966 51.0414 53.7966 49.3648C53.7966 47.6882 52.0297 46.329 49.8503 46.329C47.6708 46.329 45.904 47.6882 45.904 49.3648C45.904 51.0414 47.6708 52.4007 49.8503 52.4007Z" fill="url(#paint28_linear_1_11)"/>
</mask>
<g mask="url(#mask14_1_11)">
<path d="M49.8508 52.4004C52.0303 52.4004 53.7971 51.0412 53.7971 49.3646C53.7971 47.6879 52.0303 46.3288 49.8508 46.3288C47.6714 46.3288 45.9045 47.6879 45.9045 49.3646C45.9045 51.0412 47.6714 52.4004 49.8508 52.4004Z" fill="url(#paint29_linear_1_11)"/>
</g>
<mask id="mask15_1_11" style="mask-type:alpha" maskUnits="userSpaceOnUse" x="68" y="46" width="9" height="7">
<path d="M72.7053 52.4007C74.8848 52.4007 76.6516 51.0414 76.6516 49.3648C76.6516 47.6882 74.8848 46.329 72.7053 46.329C70.5258 46.329 68.759 47.6882 68.759 49.3648C68.759 51.0414 70.5258 52.4007 72.7053 52.4007Z" fill="url(#paint30_linear_1_11)"/>
</mask>
<g mask="url(#mask15_1_11)">
<path d="M72.7058 52.4004C74.8853 52.4004 76.6521 51.0412 76.6521 49.3646C76.6521 47.6879 74.8853 46.3288 72.7058 46.3288C70.5263 46.3288 68.7595 47.6879 68.7595 49.3646C68.7595 51.0412 70.5263 52.4004 72.7058 52.4004Z" fill="url(#paint31_linear_1_11)"/>
</g>
</g>
<defs>
<linearGradient id="paint0_linear_1_11" x1="38.6267" y1="71.0139" x2="4.70387" y2="-40.9232" gradientUnits="userSpaceOnUse">
<stop stop-color="#FFA434"/>
<stop offset="1" stop-color="#FFA434"/>
</linearGradient>
<linearGradient id="paint1_linear_1_11" x1="38.6267" y1="71.0139" x2="4.70387" y2="-40.9232" gradientUnits="userSpaceOnUse">
<stop stop-color="#FFA434"/>
<stop offset="1" stop-color="#FFA434"/>
</linearGradient>
<linearGradient id="paint2_linear_1_11" x1="61.4819" y1="71.0139" x2="27.5591" y2="-40.9233" gradientUnits="userSpaceOnUse">
<stop stop-color="#FFA434"/>
<stop offset="1" stop-color="#FFA434"/>
</linearGradient>
<linearGradient id="paint3_linear_1_11" x1="61.4825" y1="71.0139" x2="27.5597" y2="-40.9233" gradientUnits="userSpaceOnUse">
<stop stop-color="#FFA434"/>
<stop offset="1" stop-color="#FFA434"/>
</linearGradient>
<linearGradient id="paint4_linear_1_11" x1="84.337" y1="71.0139" x2="50.4142" y2="-40.9233" gradientUnits="userSpaceOnUse">
<stop stop-color="#FFA434"/>
<stop offset="1" stop-color="#FFA434"/>
</linearGradient>
<linearGradient id="paint5_linear_1_11" x1="84.3375" y1="71.0139" x2="50.4148" y2="-40.9233" gradientUnits="userSpaceOnUse">
<stop stop-color="#FFA434"/>
<stop offset="1" stop-color="#FFA434"/>
</linearGradient>
<linearGradient id="paint6_linear_1_11" x1="107.192" y1="71.0139" x2="73.2693" y2="-40.9233" gradientUnits="userSpaceOnUse">
<stop stop-color="#FFA434"/>
<stop offset="1" stop-color="#FFA434"/>
</linearGradient>
<linearGradient id="paint7_linear_1_11" x1="107.193" y1="71.0139" x2="73.2697" y2="-40.9233" gradientUnits="userSpaceOnUse">
<stop stop-color="#FFA434"/>
<stop offset="1" stop-color="#FFA434"/>
</linearGradient>
<linearGradient id="paint8_linear_1_11" x1="38.6267" y1="86.2554" x2="4.70449" y2="-25.6807" gradientUnits="userSpaceOnUse">
<stop stop-color="#FFA434"/>
<stop offset="1" stop-color="#FFA434"/>
</linearGradient>
<linearGradient id="paint9_linear_1_11" x1="38.6267" y1="86.2555" x2="4.70449" y2="-25.6807" gradientUnits="userSpaceOnUse">
<stop stop-color="#FFA434"/>
<stop offset="1" stop-color="#FFA434"/>
</linearGradient>
<linearGradient id="paint10_linear_1_11" x1="61.4819" y1="86.2555" x2="27.5597" y2="-25.6807" gradientUnits="userSpaceOnUse">
<stop stop-color="#FFA434"/>
<stop offset="1" stop-color="#FFA434"/>
</linearGradient>
<linearGradient id="paint11_linear_1_11" x1="61.4825" y1="86.2555" x2="27.5603" y2="-25.6807" gradientUnits="userSpaceOnUse">
<stop stop-color="#FFA434"/>
<stop offset="1" stop-color="#FFA434"/>
</linearGradient>
<linearGradient id="paint12_linear_1_11" x1="84.337" y1="86.2555" x2="50.4148" y2="-25.6807" gradientUnits="userSpaceOnUse">
<stop stop-color="#FFA434"/>
<stop offset="1" stop-color="#FFA434"/>
</linearGradient>
<linearGradient id="paint13_linear_1_11" x1="84.3375" y1="86.2555" x2="50.4154" y2="-25.6807" gradientUnits="userSpaceOnUse">
<stop stop-color="#FFA434"/>
<stop offset="1" stop-color="#FFA434"/>
</linearGradient>
<linearGradient id="paint14_linear_1_11" x1="107.192" y1="86.2555" x2="73.2699" y2="-25.6807" gradientUnits="userSpaceOnUse">
<stop stop-color="#FFA434"/>
<stop offset="1" stop-color="#FFA434"/>
</linearGradient>
<linearGradient id="paint15_linear_1_11" x1="107.193" y1="86.2555" x2="73.2704" y2="-25.6807" gradientUnits="userSpaceOnUse">
<stop stop-color="#FFA434"/>
<stop offset="1" stop-color="#FFA434"/>
</linearGradient>
<linearGradient id="paint16_linear_1_11" x1="38.6267" y1="101.467" x2="4.70387" y2="-10.4702" gradientUnits="userSpaceOnUse">
<stop stop-color="#FFA434"/>
<stop offset="1" stop-color="#FFA434"/>
</linearGradient>
<linearGradient id="paint17_linear_1_11" x1="38.6267" y1="101.467" x2="4.70387" y2="-10.4701" gradientUnits="userSpaceOnUse">
<stop stop-color="#FFA434"/>
<stop offset="1" stop-color="#FFA434"/>
</linearGradient>
<linearGradient id="paint18_linear_1_11" x1="61.4819" y1="101.467" x2="27.5591" y2="-10.47" gradientUnits="userSpaceOnUse">
<stop stop-color="#FFA434"/>
<stop offset="1" stop-color="#FFA434"/>
</linearGradient>
<linearGradient id="paint19_linear_1_11" x1="61.4825" y1="101.467" x2="27.5597" y2="-10.4702" gradientUnits="userSpaceOnUse">
<stop stop-color="#FFA434"/>
<stop offset="1" stop-color="#FFA434"/>
</linearGradient>
<linearGradient id="paint20_linear_1_11" x1="84.337" y1="101.467" x2="50.4142" y2="-10.47" gradientUnits="userSpaceOnUse">
<stop stop-color="#FFA434"/>
<stop offset="1" stop-color="#FFA434"/>
</linearGradient>
<linearGradient id="paint21_linear_1_11" x1="84.3375" y1="101.467" x2="50.4148" y2="-10.4702" gradientUnits="userSpaceOnUse">
<stop stop-color="#FFA434"/>
<stop offset="1" stop-color="#FFA434"/>
</linearGradient>
<linearGradient id="paint22_linear_1_11" x1="107.192" y1="101.467" x2="73.2693" y2="-10.47" gradientUnits="userSpaceOnUse">
<stop stop-color="#FFA434"/>
<stop offset="1" stop-color="#FFA434"/>
</linearGradient>
<linearGradient id="paint23_linear_1_11" x1="107.193" y1="101.467" x2="73.2697" y2="-10.4702" gradientUnits="userSpaceOnUse">
<stop stop-color="#FFA434"/>
<stop offset="1" stop-color="#FFA434"/>
</linearGradient>
<linearGradient id="paint24_linear_1_11" x1="38.6267" y1="116.71" x2="4.70387" y2="4.77242" gradientUnits="userSpaceOnUse">
<stop stop-color="#FFA434"/>
<stop offset="1" stop-color="#FFA434"/>
</linearGradient>
<linearGradient id="paint25_linear_1_11" x1="38.6267" y1="116.709" x2="4.70387" y2="4.77217" gradientUnits="userSpaceOnUse">
<stop stop-color="#FFA434"/>
<stop offset="1" stop-color="#FFA434"/>
</linearGradient>
<linearGradient id="paint26_linear_1_11" x1="61.4819" y1="116.71" x2="27.5591" y2="4.77239" gradientUnits="userSpaceOnUse">
<stop stop-color="#FFA434"/>
<stop offset="1" stop-color="#FFA434"/>
</linearGradient>
<linearGradient id="paint27_linear_1_11" x1="61.4825" y1="116.709" x2="27.5597" y2="4.77215" gradientUnits="userSpaceOnUse">
<stop stop-color="#FFA434"/>
<stop offset="1" stop-color="#FFA434"/>
</linearGradient>
<linearGradient id="paint28_linear_1_11" x1="84.337" y1="116.71" x2="50.4142" y2="4.77239" gradientUnits="userSpaceOnUse">
<stop stop-color="#FFA434"/>
<stop offset="1" stop-color="#FFA434"/>
</linearGradient>
<linearGradient id="paint29_linear_1_11" x1="84.3375" y1="116.709" x2="50.4148" y2="4.77215" gradientUnits="userSpaceOnUse">
<stop stop-color="#FFA434"/>
<stop offset="1" stop-color="#FFA434"/>
</linearGradient>
<linearGradient id="paint30_linear_1_11" x1="107.192" y1="116.71" x2="73.2693" y2="4.77239" gradientUnits="userSpaceOnUse">
<stop stop-color="#FFA434"/>
<stop offset="1" stop-color="#FFA434"/>
</linearGradient>
<linearGradient id="paint31_linear_1_11" x1="107.193" y1="116.709" x2="73.2697" y2="4.77215" gradientUnits="userSpaceOnUse">
<stop stop-color="#FFA434"/>
<stop offset="1" stop-color="#FFA434"/>
</linearGradient>
</defs>
</svg>
